<?xml version="1.0" encoding="UTF-8"?>
<svg version="1.1" xmlns="http://www.w3.org/2000/svg" width="190" height="190">
<path d="M0 0 C0.94574387 -0.00671722 1.89148773 -0.01343445 2.8658905 -0.02035522 C5.97949544 -0.03928608 9.09288412 -0.04325742 12.20654297 -0.04541016 C14.38500047 -0.05184312 16.56345712 -0.05857185 18.74191284 -0.06558228 C23.30631511 -0.07754397 27.87064177 -0.0812644 32.43505859 -0.08007812 C38.25514672 -0.07987538 44.07474414 -0.10713687 49.89471626 -0.14162254 C54.39545879 -0.1639753 58.89608496 -0.16791305 63.39687729 -0.16685867 C65.54086873 -0.16920359 67.68486393 -0.17796387 69.8288002 -0.19352341 C88.83862098 -0.31853413 105.10731718 1.94029695 119.51123047 15.66552734 C130.02498535 26.21302883 135.62945521 40.20936256 135.61425781 54.96679688 C135.62097504 55.91254074 135.62769226 56.85828461 135.63461304 57.83268738 C135.65354389 60.94629232 135.65751523 64.05968099 135.65966797 67.17333984 C135.66610093 69.35179735 135.67282966 71.530254 135.67984009 73.70870972 C135.69180178 78.27311198 135.69552221 82.83743864 135.69433594 87.40185547 C135.69413319 93.2219436 135.72139468 99.04154101 135.75588036 104.86151314 C135.77823311 109.36225566 135.78217086 113.86288184 135.78111649 118.36367416 C135.78346141 120.50766561 135.79222169 122.65166081 135.80778122 124.79559708 C135.93279194 143.80541785 133.67396086 160.07411406 119.94873047 174.47802734 C109.40122898 184.99178223 95.40489525 190.59625209 80.64746094 190.58105469 C79.70171707 190.58777191 78.75597321 190.59448914 77.78157043 190.60140991 C74.66796549 190.62034077 71.55457682 190.62431211 68.44091797 190.62646484 C66.26246047 190.63289781 64.08400382 190.63962654 61.9055481 190.64663696 C57.34114583 190.65859865 52.77681917 190.66231909 48.21240234 190.66113281 C42.39231421 190.66093007 36.5727168 190.68819156 30.75274467 190.72267723 C26.25200215 190.74502999 21.75137597 190.74896774 17.25058365 190.74791336 C15.1065922 190.75025828 12.962597 190.75901856 10.81866074 190.77457809 C-8.19116004 190.89958882 -24.45985624 188.64075774 -38.86376953 174.91552734 C-49.37752441 164.36802586 -54.98199427 150.37169212 -54.96679688 135.61425781 C-54.9735141 134.66851395 -54.98023132 133.72277008 -54.9871521 132.74836731 C-55.00608295 129.63476237 -55.0100543 126.52137369 -55.01220703 123.40771484 C-55.01864 121.22925734 -55.02536873 119.05080069 -55.03237915 116.87234497 C-55.04434084 112.30794271 -55.04806127 107.74361605 -55.046875 103.17919922 C-55.04667226 97.35911109 -55.07393375 91.53951368 -55.10841942 85.71954155 C-55.13077218 81.21879903 -55.13470992 76.71817285 -55.13365555 72.21738052 C-55.13600047 70.07338908 -55.14476075 67.92939388 -55.16032028 65.78545761 C-55.285331 46.77563683 -53.02649992 30.50694063 -39.30126953 16.10302734 C-28.75376804 5.58927246 -14.75743431 -0.0151974 0 0 Z " fill="#000000" transform="translate(54.67626953125,-0.29052734375)"/>
<path d="M0 0 C17.99757422 -0.65777936 35.81074009 0.28540749 49.8125 13.25 C59.53987344 23.79578227 62.37194733 35.55369309 62.2109375 49.59375 C61.53432 60.51986961 57.76354521 69.48431608 50.625 77.75 C49.75875 78.4925 48.8925 79.235 48 80 C47.44957031 80.47953125 46.89914063 80.9590625 46.33203125 81.453125 C38.44213119 87.89518773 28.58951777 92.1520719 18.359375 92.09765625 C16.75449219 92.09282227 16.75449219 92.09282227 15.1171875 92.08789062 C14.00601563 92.07951172 12.89484375 92.07113281 11.75 92.0625 C10.06003906 92.05573242 10.06003906 92.05573242 8.3359375 92.04882812 C5.55726894 92.03705411 2.77862773 92.019119 0 92 C0 87.71 0 83.42 0 79 C1.86591797 78.96132812 1.86591797 78.96132812 3.76953125 78.921875 C13.10998459 78.63928615 21.4895163 78.27065939 30 74 C31.093125 73.46375 32.18625 72.9275 33.3125 72.375 C38.96831322 67.37683948 43.35735549 59.65182893 44.21875 52.07617188 C44.85753399 40.82292727 43.93413233 32.69643482 36.75 23.6875 C31.06387183 17.54892722 24.25166748 15.03513215 16.015625 14.68359375 C15.08105469 14.64169922 14.14648438 14.59980469 13.18359375 14.55664062 C12.21550781 14.51732422 11.24742188 14.47800781 10.25 14.4375 C9.26644531 14.39431641 8.28289062 14.35113281 7.26953125 14.30664062 C4.84651073 14.20078051 2.42327328 14.09990688 0 14 C0 9.38 0 4.76 0 0 Z " fill="#F3F3F3" transform="translate(83,52)"/>
<path d="M0 0 C5.61 0 11.22 0 17 0 C17 17.49 17 34.98 17 53 C11.39 53 5.78 53 0 53 C0 35.51 0 18.02 0 0 Z " fill="#F0F0F0" transform="translate(61,74)"/>
</svg>
